<?xml version="1.0" encoding="utf-8"?>
<!-- Generator: Adobe Illustrator 16.0.4, SVG Export Plug-In . SVG Version: 6.00 Build 0)  -->
<!DOCTYPE svg PUBLIC "-//W3C//DTD SVG 1.1//EN" "http://www.w3.org/Graphics/SVG/1.1/DTD/svg11.dtd">
<svg version="1.1" id="Capa_1" xmlns="http://www.w3.org/2000/svg" xmlns:xlink="http://www.w3.org/1999/xlink" x="0px" y="0px"
	 width="74.074px" height="70.848px" viewBox="14.26 -0.848 74.074 70.848" enable-background="new 14.26 -0.848 74.074 70.848"
	 xml:space="preserve">
<g id="Capa_6">
	<path d="M56.58,28.764v3.109h31.754v-3.109H56.58z M62.621,64.589h19.665V36.763H62.621V64.589z M58.602,69.488h27.706V32.524
		H58.602V69.488z M61.944,36.087h21.012v29.174H61.944V36.087z"/>
	<path d="M79.893,17.536h-1.972c-0.328,0-0.6,0.266-0.6,0.595v1.521c0,0.185,0.086,0.372,0.21,0.536v8.128h2.748v-6.898
		c0.119-0.053,0.203-0.165,0.203-0.349v-2.938C80.484,17.802,80.223,17.536,79.893,17.536z M78.906,17.23
		c0.578,0,0.578-0.94,0.302-1.63c-0.274-0.684-0.302-1.348-0.302-1.348s-0.026,0.664-0.302,1.348
		C78.321,16.291,78.321,17.23,78.906,17.23z"/>
	<g>
		<path d="M49.568,12.695c3.441-2.124,4.503-6.633,2.373-10.08c-2.136-3.428-6.642-4.496-10.083-2.363
			c-3.445,2.133-4.503,6.646-2.374,10.083C41.612,13.772,46.127,14.838,49.568,12.695z"/>
		<path d="M63.294,25.816l1.079-0.106l-0.315-4.825l-1.47-0.007c0.207-1.336,0.234-3.382-0.91-5.37
			c-0.283-0.49-0.578-0.92-0.871-1.322l-0.602,1.489l0.201-2.002c-1.559-1.932-3.039-2.807-3.259-3.938c0,0,0.136,1.729,0.62,3.53
			l1.381,0.835l-1.203-0.236c0.169,0.529,0.361,1.051,0.604,1.519c0.863,1.675,0.776,3.797,1.986,5.484l-9.314-0.045l-9.682-5.863
			c-0.384-0.296-0.798-0.559-1.252-0.759l-0.185-0.111l-0.026,0.043c-0.306-0.125-0.618-0.24-0.954-0.315
			c-3.343-0.739-6.659,1.364-7.389,4.707l-4.272,19.294c-0.446,2.025,0.152,4.035,1.433,5.517h-2.053l-5.936-26.898
			c-0.408-1.811-2.205-2.975-4.013-2.574c-1.821,0.405-2.958,2.193-2.55,4.004l-0.01-0.012l6.524,29.477
			c0.19,0.867,0.723,1.687,1.417,2.161L18.821,70h3.577l1.489-9.63h20.002V70h3.704V49.563c0-0.077,0.193-0.168,0.33-0.263
			l3.5,18.261l5.876-0.893l-2.876-24.69c-0.266-1.754-1.695-3.102-3.468-3.267l-10.773-1.04l3.183-14.363l5.465,3.306
			c0.486,0.295,1.044,0.453,1.617,0.453c0.049,0,0.099,0,0.145-0.003l12.182-1.197l0.391,1.5c0.092,0.358,0.26,0.622,0.391,0.582
			c0.129-0.04,0.162-0.354,0.073-0.713L63.294,25.816z M43.889,57.407H24.432L25.602,50h18.287V57.407z"/>
	</g>
	<path d="M75.522,24.777h-0.015c-0.322,0-0.552-0.233-0.631-0.526c0.04-0.036,0.11-0.049,0.11-0.108
		c0-0.096-0.085-0.148-0.171-0.171V23.91c0.086-0.02,0.171-0.073,0.171-0.165s-0.085-0.142-0.171-0.165l0.008-0.204h-2.143v0.194
		c-0.092,0.019-0.178,0.075-0.178,0.174c0,0.096,0.086,0.151,0.178,0.171v0.052c-0.092,0.02-0.178,0.076-0.178,0.174
		c0,0.062,0.073,0.079,0.118,0.115c-0.078,0.289-0.322,0.519-0.644,0.519h-0.014c-0.383,0-0.697,0.316-0.697,0.7v2.004
		c0,0.381,0.316,0.697,0.697,0.697h3.557c0.387,0,0.702-0.316,0.702-0.697v-2.005C76.225,25.093,75.91,24.777,75.522,24.777z
		 M75.26,27.209h-3.031v-1.564h3.031V27.209z"/>
</g>
</svg>
