<?xml version="1.0" encoding="utf-8"?>
<!-- Generator: Adobe Illustrator 16.0.4, SVG Export Plug-In . SVG Version: 6.00 Build 0)  -->
<!DOCTYPE svg PUBLIC "-//W3C//DTD SVG 1.1//EN" "http://www.w3.org/Graphics/SVG/1.1/DTD/svg11.dtd">
<svg version="1.1" id="Github" xmlns="http://www.w3.org/2000/svg" xmlns:xlink="http://www.w3.org/1999/xlink" x="0px" y="0px"
	 width="200px" height="200px" viewBox="0 0 200 200" enable-background="new 0 0 200 200" xml:space="preserve">
<path fill="#FFFFFF" stroke="#000000" stroke-miterlimit="10" d="M131.8,113.09c-7.18,0-13,8.07-13,17.99
	c0,9.939,5.82,18.01,13,18.01c7.181,0,13-8.07,13-18.01C144.79,121.16,138.98,113.09,131.8,113.09z M177.061,66.26
	c1.489-3.65,1.549-24.39-6.351-44.26c0,0-18.11,1.99-45.51,20.8c-5.75-1.6-15.479-2.38-25.19-2.38c-9.73,0-19.45,0.78-25.2,2.38
	C47.4,23.99,29.29,22,29.29,22c-7.89,19.87-7.81,40.61-6.34,44.26C13.67,76.34,8,88.45,8,104.971c0,71.859,59.63,73.01,74.67,73.01
	c3.42,0,10.18,0.02,17.34,0.02c7.15,0,13.92-0.02,17.32-0.02c15.061,0,74.67-1.15,74.67-73.01C192,88.45,186.34,76.34,177.061,66.26
	z M100.28,169.15h-0.56c-37.71,0-67.09-4.49-67.09-41.15c0-8.79,3.1-16.93,10.47-23.689C55.37,93.04,76.15,99,99.72,99
	c0.1,0,0.2,0,0.29,0c0.1,0,0.18,0,0.27,0c23.57,0,44.361-5.96,56.64,5.311c7.35,6.76,10.45,14.899,10.45,23.689
	C167.37,164.66,138,169.15,100.28,169.15z M68.21,113.09c-7.18,0-13,8.07-13,17.99c0,9.939,5.82,18.01,13,18.01
	c7.19,0,13.01-8.07,13.01-18.01C81.22,121.16,75.4,113.09,68.21,113.09z"/>
</svg>
