<?xml version="1.0" encoding="utf-8"?>
<!-- Generator: Adobe Illustrator 16.0.4, SVG Export Plug-In . SVG Version: 6.00 Build 0)  -->
<!DOCTYPE svg PUBLIC "-//W3C//DTD SVG 1.1//EN" "http://www.w3.org/Graphics/SVG/1.1/DTD/svg11.dtd">
<svg version="1.1" id="Globe" xmlns="http://www.w3.org/2000/svg" xmlns:xlink="http://www.w3.org/1999/xlink" x="0px" y="0px"
	 width="200px" height="200px" viewBox="0 0 200 200" enable-background="new 0 0 200 200" xml:space="preserve">
<path fill="#FFFFFF" stroke="#000000" stroke-miterlimit="10" d="M100,4C47.05,4,3.99,47.07,3.99,100c0,52.93,43.06,96,96.01,96
	c52.93,0,96-43.07,96-96C196,47.07,152.93,4,100,4z M181.88,100c0,18.73-6.36,36-16.96,49.8c-3-2.34-6.189-8.67-3.189-15.229
	c3.029-6.6,3.819-21.881,3.119-27.83c-0.66-5.94-3.75-20.25-12.14-20.39c-8.38-0.12-14.13-2.89-19.11-12.83
	c-10.33-20.68,19.391-24.65,9.061-36.09c-2.891-3.22-17.83,13.22-20.02-8.69c-0.141-1.57,1.35-3.92,3.359-6.36
	C158.439,33.28,181.88,63.95,181.88,100z M88.75,18.93c-1.96,3.82-7.13,5.37-10.27,8.24c-6.84,6.19-9.78,5.33-13.46,11.27
	c-3.71,5.94-15.67,14.49-15.67,18.79s6.04,9.36,9.06,8.38c3.02-1,10.99-0.94,15.67,0.7c4.69,1.66,39.141,3.32,28.16,32.44
	c-3.48,9.26-18.73,7.7-22.79,23.029c-0.61,2.25-2.72,11.861-2.85,15c-0.25,4.861,3.44,23.181-1.25,23.181
	c-4.71,0-17.38-16.39-17.38-19.36c0-2.97-3.28-13.379-3.28-22.3c0-8.909-15.18-8.771-15.18-20.62c0-10.68,8.23-16,6.38-21.13
	c-1.81-5.1-16.27-5.27-22.3-5.9C34.12,43.34,58.89,23.07,88.75,18.93z M74.24,177.7c4.92-2.601,5.42-5.96,9.88-6.13
	c5.1-0.23,9.25-1.99,15-3.26c5.101-1.11,14.229-6.291,22.26-6.951c6.78-0.549,20.149,0.351,23.75,6.891
	c-12.95,8.609-28.479,13.63-45.14,13.63C91,181.88,82.34,180.391,74.24,177.7z"/>
</svg>
