<?xml version="1.0" encoding="utf-8"?>
<!-- Generator: Adobe Illustrator 16.0.4, SVG Export Plug-In . SVG Version: 6.00 Build 0)  -->
<!DOCTYPE svg PUBLIC "-//W3C//DTD SVG 1.1//EN" "http://www.w3.org/Graphics/SVG/1.1/DTD/svg11.dtd">
<svg version="1.1" id="Layer_1" xmlns="http://www.w3.org/2000/svg" xmlns:xlink="http://www.w3.org/1999/xlink" x="0px" y="0px"
	 width="121.743px" height="74.161px" viewBox="0 0 121.743 74.161" enable-background="new 0 0 121.743 74.161"
	 xml:space="preserve">
<g>
	<line fill="#FFFFFF" x1="7.691" y1="67.016" x2="28.643" y2="7.145"/>
	<g>
		<path d="M10.102,67.681C17.086,47.724,24.07,27.766,31.054,7.809c1.068-3.052-3.764-4.352-4.821-1.329
			C19.249,26.437,12.265,46.395,5.281,66.351C4.213,69.403,9.044,70.704,10.102,67.681L10.102,67.681z"/>
	</g>
</g>
<g>
	<line fill="#FFFFFF" x1="28.643" y1="7.145" x2="50.018" y2="67.016"/>
	<g>
		<path d="M26.232,7.809c7.125,19.957,14.25,39.915,21.375,59.872c1.076,3.014,5.908,1.715,4.821-1.33
			C45.303,46.395,38.179,26.437,31.054,6.48C29.978,3.466,25.146,4.765,26.232,7.809L26.232,7.809z"/>
	</g>
</g>
<g>
	<line fill="#FFFFFF" x1="50.018" y1="67.016" x2="71.287" y2="7.145"/>
	<g>
		<path d="M52.428,67.681c7.09-19.958,14.18-39.915,21.27-59.872c1.082-3.046-3.75-4.345-4.821-1.329
			c-7.09,19.957-14.18,39.915-21.27,59.871C46.525,69.398,51.357,70.697,52.428,67.681L52.428,67.681z"/>
	</g>
</g>
<g>
	<line fill="#FFFFFF" x1="71.287" y1="7.145" x2="92.661" y2="67.016"/>
	<g>
		<path d="M68.876,7.809c7.125,19.957,14.25,39.915,21.374,59.872c1.076,3.014,5.908,1.715,4.822-1.33
			C87.947,46.395,80.822,26.437,73.698,6.48C72.622,3.466,67.79,4.765,68.876,7.809L68.876,7.809z"/>
	</g>
</g>
<g>
	<line fill="#FFFFFF" x1="92.661" y1="67.016" x2="114.036" y2="7.145"/>
	<g>
		<path d="M95.072,67.681c7.125-19.958,14.25-39.915,21.375-59.872c1.087-3.044-3.746-4.343-4.822-1.329
			C104.5,26.437,97.375,46.395,90.25,66.351C89.164,69.396,93.996,70.695,95.072,67.681L95.072,67.681z"/>
	</g>
</g>
</svg>
