<?xml version="1.0" encoding="utf-8"?>
<!-- Generator: Adobe Illustrator 16.0.4, SVG Export Plug-In . SVG Version: 6.00 Build 0)  -->
<!DOCTYPE svg PUBLIC "-//W3C//DTD SVG 1.1//EN" "http://www.w3.org/Graphics/SVG/1.1/DTD/svg11.dtd">
<svg version="1.1" id="Layer_1" xmlns="http://www.w3.org/2000/svg" xmlns:xlink="http://www.w3.org/1999/xlink" x="0px" y="0px"
	 width="121.743px" height="74.161px" viewBox="0 0 121.743 74.161" enable-background="new 0 0 121.743 74.161"
	 xml:space="preserve">
<g>
	<polyline fill="#FFFFFF" points="114.036,7.145 92.661,67.016 71.287,7.145 50.018,67.016 28.643,7.145 7.691,67.016 	"/>
	<g>
		<path d="M109.215,5.815c-7.125,19.957-14.25,39.914-21.375,59.872c3.214,0,6.428,0,9.643,0
			C90.358,45.729,83.233,25.772,76.108,5.815c-1.695-4.748-7.952-4.759-9.643,0c-7.09,19.957-14.18,39.914-21.27,59.872
			c3.214,0,6.428,0,9.643,0c-7.125-19.958-14.25-39.915-21.375-59.872c-1.689-4.731-7.971-4.777-9.643,0
			C16.838,25.772,9.854,45.729,2.87,65.687c-2.136,6.103,7.527,8.704,9.643,2.658C19.497,48.388,26.48,28.431,33.464,8.474
			c-3.214,0-6.428,0-9.643,0c7.125,19.958,14.25,39.915,21.375,59.872c1.695,4.748,7.952,4.759,9.643,0
			c7.09-19.957,14.18-39.914,21.27-59.872c-3.214,0-6.428,0-9.643,0C73.59,28.431,80.715,48.388,87.84,68.345
			c1.697,4.753,7.945,4.753,9.643,0c7.125-19.957,14.25-39.914,21.375-59.872C121.031,2.385,111.366-0.212,109.215,5.815
			L109.215,5.815z"/>
	</g>
</g>
</svg>
