<?xml version="1.0" encoding="utf-8"?>
<!-- Generator: Adobe Illustrator 16.0.4, SVG Export Plug-In . SVG Version: 6.00 Build 0)  -->
<!DOCTYPE svg PUBLIC "-//W3C//DTD SVG 1.1//EN" "http://www.w3.org/Graphics/SVG/1.1/DTD/svg11.dtd">
<svg version="1.1" id="Laag_1" xmlns="http://www.w3.org/2000/svg" xmlns:xlink="http://www.w3.org/1999/xlink" x="0px" y="0px"
	 width="44.444px" height="72.592px" viewBox="29.074 -1.852 44.444 72.592" enable-background="new 29.074 -1.852 44.444 72.592"
	 xml:space="preserve">
<g>
	<g>
		<rect x="40.185" y="-1.852" width="23.704" height="14.815"/>
		<rect x="40.185" y="55.926" width="23.704" height="14.814"/>
		<path d="M73.519,31.481v-8.889h-2.222V11.481H64.63v3.704H39.444v-3.704h-8.148v11.111h-2.222v8.889h2.222v25.926h8.148v-3.704
			H64.63v3.704h6.667V44.815h2.222v-8.889h-2.222v-4.444H73.519z M65.371,48.519H37.222V20.37h28.149V48.519z"/>
	</g>
	<path d="M50.556,44.296c-0.667,0-1.333-0.371-1.63-0.963l-5.407-8.815c-0.593-0.889-0.296-2.148,0.667-2.667
		c0.889-0.593,2.148-0.296,2.667,0.667l3.555,5.778l6.815-14.074c0.443-0.963,1.629-1.333,2.592-0.889
		c0.963,0.444,1.334,1.629,0.889,2.592L52.26,43.185c-0.297,0.667-0.963,1.037-1.63,1.111
		C50.556,44.296,50.556,44.296,50.556,44.296z"/>
</g>
</svg>
