<?xml version="1.0" encoding="utf-8"?>
<!-- Generator: Adobe Illustrator 16.0.4, SVG Export Plug-In . SVG Version: 6.00 Build 0)  -->
<!DOCTYPE svg PUBLIC "-//W3C//DTD SVG 1.1//EN" "http://www.w3.org/Graphics/SVG/1.1/DTD/svg11.dtd">
<svg version="1.1" id="Laag_1" xmlns="http://www.w3.org/2000/svg" xmlns:xlink="http://www.w3.org/1999/xlink" x="0px" y="0px"
	 width="65.498px" height="71.786px" viewBox="18.548 -1.449 65.498 71.786" enable-background="new 18.548 -1.449 65.498 71.786"
	 xml:space="preserve">
<g>
	<g>
		<rect x="38.572" y="-1.449" width="27.146" height="14.65"/>
		<rect x="38.572" y="55.687" width="27.146" height="14.65"/>
		<path d="M76.745,31.514v-8.79H74.2V11.736h-7.635v3.663H37.722v-3.663h-9.33v10.987h-2.543v8.79h2.543v25.638h9.33v-3.662h28.844
			v3.662H74.2V44.7h2.545v-8.791H74.2v-4.395L76.745,31.514L76.745,31.514z M67.415,48.362H35.179V20.526h32.236V48.362z"/>
	</g>
	<path d="M50.448,44.187c-0.764,0-1.527-0.367-1.867-0.953l-6.192-8.716c-0.679-0.879-0.339-2.124,0.765-2.637
		c1.018-0.587,2.46-0.293,3.055,0.659l4.07,5.714l7.805-13.917c0.508-0.953,1.865-1.318,2.968-0.879s1.528,1.611,1.019,2.563
		L52.4,43.087c-0.34,0.66-1.104,1.025-1.866,1.1C50.448,44.187,50.448,44.187,50.448,44.187z"/>
</g>
</svg>
